<mxfile host="app.diagrams.net" modified="2020-10-23T08:06:47.249Z" agent="5.0 (Windows NT 10.0; Win64; x64) AppleWebKit/537.36 (KHTML, like Gecko) Chrome/86.0.4240.75 Safari/537.36" etag="uZzwsh-sln9xzXojpgDU" version="13.8.1" type="github">
  <diagram id="jqOhDni-oQEerBtIIdov" name="Page-1">
    <mxGraphModel dx="1422" dy="833" grid="1" gridSize="10" guides="1" tooltips="1" connect="1" arrows="1" fold="1" page="1" pageScale="1" pageWidth="827" pageHeight="1169" math="0" shadow="0">
      <root>
        <mxCell id="0" />
        <mxCell id="1" parent="0" />
        <mxCell id="2sxuf5Y_pAdE7AjlEddM-1" value="" style="rounded=0;whiteSpace=wrap;html=1;fillColor=#EAEDED;fontSize=22;fontColor=#FFFFFF;strokeColor=none;labelBackgroundColor=none;" vertex="1" parent="1">
          <mxGeometry x="144" y="50" width="539" height="510" as="geometry" />
        </mxCell>
        <mxCell id="2sxuf5Y_pAdE7AjlEddM-2" value="&lt;span&gt;微服务/定时任务:需要进行实时性高数据交互服务.&lt;/span&gt;" style="text;html=1;align=left;verticalAlign=top;spacingTop=-4;fontSize=14;labelBackgroundColor=none;whiteSpace=wrap;" vertex="1" parent="1">
          <mxGeometry x="215.5" y="77.25" width="449" height="32.5" as="geometry" />
        </mxCell>
        <mxCell id="2sxuf5Y_pAdE7AjlEddM-3" value="1" style="ellipse;whiteSpace=wrap;html=1;aspect=fixed;fillColor=#4D9900;strokeColor=none;labelBackgroundColor=none;" vertex="1" parent="1">
          <mxGeometry x="165.5" y="74" width="23" height="23" as="geometry" />
        </mxCell>
        <mxCell id="2sxuf5Y_pAdE7AjlEddM-4" value="&lt;span&gt;API GateWay(API网关): API路由服务,&lt;/span&gt;&lt;span id=&quot;docs-internal-guid-dd0a6776-7fff-c518-27d1-3884f40e37ec&quot;&gt;&lt;span style=&quot;font-size: 11pt ; font-family: &amp;#34;arial&amp;#34; ; color: rgb(53 , 55 , 68) ; background-color: transparent ; vertical-align: baseline&quot;&gt;隔离第三方通用服务(非本司服务)与本地应用直接进行交互,统一交互协议,作为外部服务的唯一出口.松散业务与中间的耦合.&amp;nbsp;&lt;/span&gt;&lt;/span&gt;&lt;span&gt;&lt;br&gt;&amp;nbsp;&lt;/span&gt;" style="text;html=1;align=left;verticalAlign=top;spacingTop=-4;fontSize=14;labelBackgroundColor=none;whiteSpace=wrap;" vertex="1" parent="1">
          <mxGeometry x="214" y="114" width="449" height="42" as="geometry" />
        </mxCell>
        <mxCell id="2sxuf5Y_pAdE7AjlEddM-5" value="2" style="ellipse;whiteSpace=wrap;html=1;aspect=fixed;fillColor=#4D9900;strokeColor=none;labelBackgroundColor=none;" vertex="1" parent="1">
          <mxGeometry x="165.5" y="123" width="23" height="23" as="geometry" />
        </mxCell>
        <mxCell id="2sxuf5Y_pAdE7AjlEddM-6" value="&lt;span&gt;数据库:服务使用数据库(含Mysql、Oracle)&lt;/span&gt;" style="text;html=1;align=left;verticalAlign=top;spacingTop=-4;fontSize=14;labelBackgroundColor=none;whiteSpace=wrap;" vertex="1" parent="1">
          <mxGeometry x="215.5" y="172" width="449" height="30" as="geometry" />
        </mxCell>
        <mxCell id="2sxuf5Y_pAdE7AjlEddM-7" value="3" style="ellipse;whiteSpace=wrap;html=1;aspect=fixed;fillColor=#4D9900;strokeColor=none;labelBackgroundColor=none;" vertex="1" parent="1">
          <mxGeometry x="165.5" y="172" width="23" height="23" as="geometry" />
        </mxCell>
        <mxCell id="2sxuf5Y_pAdE7AjlEddM-8" value="第三方云服务: 内部通用的第三方云服务.如阿里云服务,微信服务等." style="text;html=1;align=left;verticalAlign=top;spacingTop=-4;fontSize=14;labelBackgroundColor=none;whiteSpace=wrap;" vertex="1" parent="1">
          <mxGeometry x="215.5" y="221" width="449" height="30" as="geometry" />
        </mxCell>
        <mxCell id="2sxuf5Y_pAdE7AjlEddM-9" value="4" style="ellipse;whiteSpace=wrap;html=1;aspect=fixed;fillColor=#4D9900;strokeColor=none;labelBackgroundColor=none;" vertex="1" parent="1">
          <mxGeometry x="165.5" y="221" width="23" height="23" as="geometry" />
        </mxCell>
        <mxCell id="2sxuf5Y_pAdE7AjlEddM-10" value="&lt;span&gt;配置管理: 对分布式服务进行动态配置信息管理.&lt;/span&gt;" style="text;html=1;align=left;verticalAlign=top;spacingTop=-4;fontSize=14;labelBackgroundColor=none;whiteSpace=wrap;" vertex="1" parent="1">
          <mxGeometry x="215.5" y="270" width="449" height="30" as="geometry" />
        </mxCell>
        <mxCell id="2sxuf5Y_pAdE7AjlEddM-11" value="5" style="ellipse;whiteSpace=wrap;html=1;aspect=fixed;fillColor=#4D9900;strokeColor=none;labelBackgroundColor=none;" vertex="1" parent="1">
          <mxGeometry x="165.5" y="270" width="23" height="23" as="geometry" />
        </mxCell>
        <mxCell id="2sxuf5Y_pAdE7AjlEddM-12" value="&lt;span style=&quot;text-align: center&quot;&gt;&lt;font style=&quot;font-size: 14px&quot;&gt;Canal/DataX/DataBus&lt;/font&gt;&lt;/span&gt;&lt;span&gt;(数据库管道): 通过通过伪装成备份库,实时解析binaryLog分析数据库行为,进行数据同步.&lt;/span&gt;" style="text;html=1;align=left;verticalAlign=top;spacingTop=-4;fontSize=14;labelBackgroundColor=none;whiteSpace=wrap;" vertex="1" parent="1">
          <mxGeometry x="215.5" y="319" width="449" height="30" as="geometry" />
        </mxCell>
        <mxCell id="2sxuf5Y_pAdE7AjlEddM-13" value="6" style="ellipse;whiteSpace=wrap;html=1;aspect=fixed;fillColor=#4D9900;strokeColor=none;labelBackgroundColor=none;" vertex="1" parent="1">
          <mxGeometry x="165.5" y="319" width="23" height="23" as="geometry" />
        </mxCell>
        <mxCell id="2sxuf5Y_pAdE7AjlEddM-14" value="&lt;span&gt;Redis/ElasticSearch: 数据缓存应该用库,存放通用缓存数据,数据由Canal进行搬运.&lt;/span&gt;" style="text;html=1;align=left;verticalAlign=top;spacingTop=-4;fontSize=14;labelBackgroundColor=none;whiteSpace=wrap;" vertex="1" parent="1">
          <mxGeometry x="215.5" y="368" width="449" height="40" as="geometry" />
        </mxCell>
        <mxCell id="2sxuf5Y_pAdE7AjlEddM-15" value="7" style="ellipse;whiteSpace=wrap;html=1;aspect=fixed;fillColor=#4D9900;strokeColor=none;labelBackgroundColor=none;" vertex="1" parent="1">
          <mxGeometry x="165.5" y="368" width="23" height="23" as="geometry" />
        </mxCell>
        <mxCell id="2sxuf5Y_pAdE7AjlEddM-16" value="&lt;span&gt;Kibana: 提供ElasticSearch在线查询功能，可提供直观的图表及报告&lt;/span&gt;" style="text;html=1;align=left;verticalAlign=top;spacingTop=-4;fontSize=14;labelBackgroundColor=none;whiteSpace=wrap;" vertex="1" parent="1">
          <mxGeometry x="215.5" y="417" width="449" height="30" as="geometry" />
        </mxCell>
        <mxCell id="2sxuf5Y_pAdE7AjlEddM-17" value="8" style="ellipse;whiteSpace=wrap;html=1;aspect=fixed;fillColor=#4D9900;strokeColor=none;labelBackgroundColor=none;" vertex="1" parent="1">
          <mxGeometry x="165.5" y="417" width="23" height="23" as="geometry" />
        </mxCell>
        <mxCell id="2sxuf5Y_pAdE7AjlEddM-18" value="&lt;span&gt;日志:&lt;/span&gt;接收记录API GateWay保存日志,完整保留数据流转过程中的信息" style="text;html=1;align=left;verticalAlign=top;spacingTop=-4;fontSize=14;labelBackgroundColor=none;whiteSpace=wrap;" vertex="1" parent="1">
          <mxGeometry x="215.5" y="466" width="449" height="20" as="geometry" />
        </mxCell>
        <mxCell id="2sxuf5Y_pAdE7AjlEddM-19" value="9" style="ellipse;whiteSpace=wrap;html=1;aspect=fixed;fillColor=#4D9900;strokeColor=none;labelBackgroundColor=none;" vertex="1" parent="1">
          <mxGeometry x="165.5" y="466" width="23" height="23" as="geometry" />
        </mxCell>
        <mxCell id="2sxuf5Y_pAdE7AjlEddM-20" value="&lt;span&gt;Users:运维/配置管理员.&lt;/span&gt;" style="text;html=1;align=left;verticalAlign=top;spacingTop=-4;fontSize=14;labelBackgroundColor=none;whiteSpace=wrap;" vertex="1" parent="1">
          <mxGeometry x="215.5" y="515" width="449" height="20" as="geometry" />
        </mxCell>
        <mxCell id="2sxuf5Y_pAdE7AjlEddM-21" value="10" style="ellipse;whiteSpace=wrap;html=1;aspect=fixed;fillColor=#4D9900;strokeColor=none;labelBackgroundColor=none;" vertex="1" parent="1">
          <mxGeometry x="165.5" y="515" width="23" height="23" as="geometry" />
        </mxCell>
      </root>
    </mxGraphModel>
  </diagram>
</mxfile>
